<?xml version="1.0" encoding="UTF-8" standalone="no"?>
<svg width="111px" height="35px" viewBox="0 0 111 35" version="1.1" xmlns="http://www.w3.org/2000/svg" xmlns:xlink="http://www.w3.org/1999/xlink" xmlns:sketch="http://www.bohemiancoding.com/sketch/ns">
    <!-- Generator: Sketch 3.5.2 (25235) - http://www.bohemiancoding.com/sketch -->
    <title>Group 5</title>
    <desc>Created with Sketch.</desc>
    <defs></defs>
    <g id="Welcome" stroke="none" stroke-width="1" fill="none" fill-rule="evenodd" sketch:type="MSPage">
        <g id="Desktop-HD" sketch:type="MSArtboardGroup" transform="translate(-665.000000, -25.000000)" fill="#9B080D">
            <g id="Group-5" sketch:type="MSLayerGroup" transform="translate(665.000000, 25.000000)">
                <g id="star_1_" transform="translate(37.000000, 0.000000)" sketch:type="MSShapeGroup">
                    <path d="M36.852,13.4042553 L22.866,13.4042553 L18.574,-4.26325641e-14 L18.5,-4.26325641e-14 L14.134,13.4042553 L0,13.4042553 L11.47,21.5212766 L7.178,34.7021277 L7.104,34.7021277 L18.5,26.4361702 L29.896,34.6276596 L25.604,21.4468085 L36.852,13.4042553 L36.852,13.4042553 Z" id="Shape"></path>
                </g>
                <g id="star_1_-copy" transform="translate(86.000000, 6.000000)" sketch:type="MSShapeGroup">
                    <path d="M24.9,9.19148936 L15.45,9.19148936 L12.55,-2.84217094e-14 L12.5,-2.84217094e-14 L9.55,9.19148936 L0,9.19148936 L7.75,14.7574468 L4.85,23.7957447 L4.8,23.7957447 L12.5,18.1276596 L20.2,23.7446809 L17.3,14.706383 L24.9,9.19148936 L24.9,9.19148936 Z" id="Shape"></path>
                </g>
                <g id="star_1_-copy-2" transform="translate(0.000000, 6.000000)" sketch:type="MSShapeGroup">
                    <path d="M24.9,9.19148936 L15.45,9.19148936 L12.55,-2.84217094e-14 L12.5,-2.84217094e-14 L9.55,9.19148936 L0,9.19148936 L7.75,14.7574468 L4.85,23.7957447 L4.8,23.7957447 L12.5,18.1276596 L20.2,23.7446809 L17.3,14.706383 L24.9,9.19148936 L24.9,9.19148936 Z" id="Shape"></path>
                </g>
            </g>
        </g>
    </g>
</svg>