<svg width="111" height="35" viewBox="0 0 111 35" xmlns="http://www.w3.org/2000/svg"><title>Group 5</title><path d="M73.852 13.404H59.866L55.574 0H55.5l-4.366 13.404H37l11.47 8.117-4.292 13.183h-.074L55.5 26.436l11.396 8.192-4.292-13.18 11.248-8.044zM110.9 15.19h-9.45L98.55 6h-.05l-2.95 9.19H86l7.75 5.567-2.9 9.04h-.05l7.7-5.67 7.7 5.618-2.9-9.04 7.6-5.514zm-86 0h-9.45L12.55 6h-.05l-2.95 9.19H0l7.75 5.567-2.9 9.04H4.8l7.7-5.67 7.7 5.618-2.9-9.04 7.6-5.514z" fill="#9B080D" fill-rule="evenodd"/></svg>