<?xml version="1.0" encoding="UTF-8" standalone="no"?>
<svg width="34px" height="53px" viewBox="0 0 34 53" version="1.1" xmlns="http://www.w3.org/2000/svg" xmlns:xlink="http://www.w3.org/1999/xlink" xmlns:sketch="http://www.bohemiancoding.com/sketch/ns">
    <!-- Generator: Sketch 3.5.2 (25235) - http://www.bohemiancoding.com/sketch -->
    <title>Shape Copy 3</title>
    <desc>Created with Sketch.</desc>
    <defs></defs>
    <g id="Welcome" stroke="none" stroke-width="1" fill="none" fill-rule="evenodd" sketch:type="MSPage">
        <g id="Desktop-HD" sketch:type="MSArtboardGroup" transform="translate(-111.000000, -777.000000)" fill="#DDCEB3">
            <g id="Group-3" sketch:type="MSLayerGroup" transform="translate(8.000000, 771.000000)">
                <path d="M136.998444,39.0837163 C136.997845,39.0016842 136.979287,38.9222829 136.950672,38.8451536 C136.942411,38.8245858 136.93415,38.8068879 136.924572,38.7870376 C136.914994,38.7665894 136.910205,38.7453041 136.898471,38.7254537 L129.888207,27.1726804 C129.760218,26.9634149 129.533575,26.834866 129.288493,26.834866 L125.679198,26.834866 L133.817772,18.7062749 C134.091588,18.4321968 134.091588,17.9897497 133.817772,17.7162695 L122.293314,6.20511013 C122.01878,5.93162996 121.575789,5.93162996 121.301973,6.20511013 L106.181869,21.3052333 C105.907694,21.5787135 105.907694,22.0211607 106.181869,22.2953583 L110.726592,26.8342681 L110.710549,26.8342681 C110.465108,26.8342681 110.238225,26.962817 110.111195,27.1719629 L103.10093,38.7247362 C103.088957,38.7445866 103.08345,38.7658719 103.074231,38.7863201 C103.065371,38.805453 103.056751,38.8239879 103.048968,38.8437187 C103.020234,38.921685 103.001437,39.0009668 103.000718,39.0829989 C103.000718,39.0844338 103,39.0857492 103,39.0871842 L103,57.7586929 C103,58.1463723 103.313565,58.4587161 103.701003,58.4587161 L136.298997,58.4587161 C136.686435,58.4587161 137,58.1463723 137,57.7586929 L137,39.0879016 C136.999162,39.0864667 136.998444,39.0851513 136.998444,39.0837163 L136.998444,39.0837163 Z M121.796326,7.690178 L132.330162,18.2112124 L118.203075,32.3213302 L112.915205,27.0399463 L107.669479,21.8008937 L121.796326,7.690178 L121.796326,7.690178 Z M111.10517,28.2351515 L112.128598,28.2351515 L117.705968,33.8058002 C117.770381,33.8707323 117.848323,33.9220323 117.934647,33.9576672 C118.020251,33.9939 118.111364,34.0115979 118.202357,34.0115979 L124.263424,34.0115979 C124.650862,34.0115979 124.964427,33.6984171 124.964427,33.3114552 C124.964427,32.9252108 124.650862,32.6113125 124.263424,32.6113125 L119.8947,32.6113125 L124.275876,28.235271 L128.892795,28.235271 L135.052877,38.3877589 L104.944489,38.3877589 L111.10517,28.2351515 L111.10517,28.2351515 Z M135.597157,57.0591481 L104.401287,57.0591481 L104.401287,39.7880444 L135.597277,39.7880444 L135.597277,57.0591481 L135.597157,57.0591481 Z" id="Shape-Copy-3" sketch:type="MSShapeGroup"></path>
            </g>
        </g>
    </g>
</svg>