<?xml version="1.0" encoding="UTF-8" standalone="no"?>
<svg width="44px" height="54px" viewBox="0 0 44 54" version="1.1" xmlns="http://www.w3.org/2000/svg" xmlns:xlink="http://www.w3.org/1999/xlink" xmlns:sketch="http://www.bohemiancoding.com/sketch/ns">
    <!-- Generator: Sketch 3.5.2 (25235) - http://www.bohemiancoding.com/sketch -->
    <title>Group Copy</title>
    <desc>Created with Sketch.</desc>
    <defs></defs>
    <g id="Welcome" stroke="none" stroke-width="1" fill="none" fill-rule="evenodd" sketch:type="MSPage">
        <g id="Desktop-HD" sketch:type="MSArtboardGroup" transform="translate(-442.000000, -774.000000)" fill="#DDCEB3">
            <g id="Group-3" sketch:type="MSLayerGroup" transform="translate(8.000000, 771.000000)">
                <g id="Group-Copy" transform="translate(434.000000, 3.000000)" sketch:type="MSShapeGroup">
                    <g id="Group-2" transform="translate(0.500000, 0.000000)">
                        <path d="M7.61,21.022 L35.64,21.022 C36.284,21.022 36.808,20.499 36.808,19.854 C36.808,19.212 36.284,18.687 35.64,18.687 L35.58,18.687 C35.052,12.277 30.209,7.099 23.961,6.05 L23.961,4.38 L21.917,4.38 L21.917,0.292 C21.917,0.133 21.786,0 21.625,0 C21.464,0 21.333,0.133 21.333,0.292 L21.333,4.379 L19.29,4.379 L19.29,6.049 C13.042,7.098 8.2,12.276 7.669,18.686 L7.61,18.686 C6.966,18.686 6.443,19.211 6.443,19.853 C6.443,20.499 6.966,21.022 7.61,21.022 L7.61,21.022 Z" id="Shape"></path>
                        <path d="M41.48,50.332 L40.02,50.332 L40.02,36.9 L41.48,36.9 C42.288,36.9 42.94,36.25 42.94,35.44 C42.94,34.637 42.288,33.98 41.48,33.98 L1.771,33.98 C0.965,33.98 0.311,34.637 0.311,35.44 C0.311,36.25 0.965,36.9 1.771,36.9 L3.231,36.9 L3.231,50.332 L1.771,50.332 C0.965,50.332 0.311,50.988 0.311,51.791 C0.311,52.602 0.965,53.251 1.771,53.251 L41.48,53.251 C42.288,53.251 42.94,52.602 42.94,51.791 C42.94,50.99 42.288,50.332 41.48,50.332 L41.48,50.332 Z M35.932,50.332 L33.48,50.332 L33.48,36.9 L35.932,36.9 L35.932,50.332 L35.932,50.332 Z M20.399,36.9 L22.851,36.9 L22.851,50.332 L20.399,50.332 L20.399,36.9 L20.399,36.9 Z M16.312,50.332 L13.859,50.332 L13.859,36.9 L16.312,36.9 L16.312,50.332 L16.312,50.332 Z M26.94,36.9 L29.392,36.9 L29.392,50.332 L26.94,50.332 L26.94,36.9 L26.94,36.9 Z M7.318,36.9 L9.77,36.9 L9.77,50.332 L7.318,50.332 L7.318,36.9 L7.318,36.9 Z" id="Shape"></path>
                        <path d="M5.859,25.986 L7.33,25.986 C7.33,26.008 7.318,26.028 7.318,26.044 L7.318,32.346 L10.238,32.346 L10.238,26.044 C10.238,26.023 10.227,26.002 10.227,25.986 L11.614,25.986 C11.614,26.008 11.603,26.028 11.603,26.044 L11.603,32.346 L14.522,32.346 L14.522,26.044 C14.522,26.023 14.511,26.002 14.511,25.986 L15.898,25.986 C15.898,26.008 15.887,26.028 15.887,26.044 L15.887,32.346 L18.807,32.346 L18.807,26.044 C18.807,26.023 18.795,26.002 18.795,25.986 L20.182,25.986 C20.182,26.008 20.17,26.028 20.17,26.044 L20.17,32.346 L23.09,32.346 L23.09,26.044 C23.09,26.023 23.078,26.002 23.078,25.986 L24.465,25.986 C24.465,26.008 24.453,26.028 24.453,26.044 L24.453,32.346 L27.373,32.346 L27.373,26.044 C27.373,26.023 27.362,26.002 27.362,25.986 L28.749,25.986 C28.749,26.008 28.737,26.028 28.737,26.044 L28.737,32.346 L31.657,32.346 L31.657,26.044 C31.657,26.023 31.645,26.002 31.645,25.986 L33.032,25.986 C33.032,26.008 33.021,26.028 33.021,26.044 L33.021,32.346 L35.941,32.346 L35.941,26.044 C35.941,26.023 35.929,26.002 35.929,25.986 L37.4,25.986 C38.208,25.986 38.86,25.335 38.86,24.526 C38.86,23.719 38.208,23.066 37.4,23.066 L5.868,23.066 C5.063,23.066 4.408,23.719 4.408,24.526 C4.408,25.331 5.052,25.986 5.859,25.986 L5.859,25.986 Z" id="Shape"></path>
                    </g>
                </g>
            </g>
        </g>
    </g>
</svg>