<?xml version="1.0" encoding="UTF-8" standalone="no"?>
<svg width="66px" height="50px" viewBox="0 0 66 50" version="1.1" xmlns="http://www.w3.org/2000/svg" xmlns:xlink="http://www.w3.org/1999/xlink" xmlns:sketch="http://www.bohemiancoding.com/sketch/ns">
    <!-- Generator: Sketch 3.5.2 (25235) - http://www.bohemiancoding.com/sketch -->
    <title>elephant7 copy</title>
    <desc>Created with Sketch.</desc>
    <defs></defs>
    <g id="Welcome" stroke="none" stroke-width="1" fill="none" fill-rule="evenodd" sketch:type="MSPage">
        <g id="Desktop-HD" sketch:type="MSArtboardGroup" transform="translate(-8.000000, -778.000000)" fill="#DDCEB3">
            <g id="Group-3" sketch:type="MSLayerGroup" transform="translate(8.000000, 771.000000)">
                <g id="elephant7-copy" transform="translate(0.000000, 7.000000)" sketch:type="MSShapeGroup">
                    <g id="Group">
                        <path d="M33.3284032,0.332258065 L20.9177419,0.332258065 C11.0959839,0.332258065 2.85716129,7.16989247 0.60783871,16.3892473 L53.6372419,16.3892473 C51.3889839,7.16989247 43.1490968,0.332258065 33.3284032,0.332258065 L33.3284032,0.332258065 Z M18.560371,8.81989247 L16.5510968,10.294086 L17.3180806,12.6801075 C17.4128226,12.9741935 17.3095645,13.2956989 17.0620645,13.4768817 C16.9396452,13.5672043 16.7932742,13.6129032 16.6474355,13.6129032 C16.502129,13.6129032 16.3568226,13.5672043 16.2333387,13.4768817 L14.2245968,12.0026882 L12.2158548,13.4768817 C11.9678226,13.6586022 11.6335645,13.6586022 11.3860645,13.4768817 C11.1380323,13.2951613 11.0353065,12.9736559 11.1295161,12.6801075 L11.8970323,10.294086 L9.88829032,8.81989247 C9.64079032,8.63817204 9.53753226,8.31612903 9.63227419,8.02311828 C9.72648387,7.73010753 9.99793548,7.5311828 10.3034516,7.5311828 L12.7864355,7.5311828 L13.5534194,5.14516129 C13.6486935,4.85107527 13.9190806,4.65268817 14.225129,4.65268817 C14.5306452,4.65268817 14.8015645,4.85107527 14.8963065,5.14516129 L15.6638226,7.5311828 L18.1462742,7.5311828 C18.4523226,7.5311828 18.7232419,7.73010753 18.8179839,8.02311828 C18.9105968,8.31666667 18.8073387,8.63870968 18.560371,8.81989247 L18.560371,8.81989247 Z M31.4766774,8.81989247 L29.4674032,10.294086 L30.2349194,12.6801075 C30.3285968,12.9741935 30.2253387,13.2956989 29.978371,13.4768817 C29.8554194,13.5672043 29.7095806,13.6129032 29.5637419,13.6129032 C29.4189677,13.6129032 29.273129,13.5672043 29.1485806,13.4768817 L27.140371,12.0026882 L25.131629,13.4768817 C24.8846613,13.6586022 24.549871,13.6586022 24.302371,13.4768817 C24.054871,13.2951613 23.9516129,12.9736559 24.0463548,12.6801075 L24.8133387,10.294086 L22.8040645,8.81989247 C22.557629,8.63817204 22.4538387,8.31612903 22.5480484,8.02311828 C22.6427903,7.73010753 22.9137097,7.5311828 23.2197581,7.5311828 L25.7027419,7.5311828 L26.4702581,5.14516129 C26.5639355,4.85107527 26.8359194,4.65268817 27.1409032,4.65268817 C27.4469516,4.65268817 27.717871,4.85107527 27.8126129,5.14516129 L28.5795968,7.5311828 L31.0631129,7.5311828 C31.3680968,7.5311828 31.6390161,7.73010753 31.7337581,8.02311828 C31.8274355,8.31666667 31.7236452,8.63870968 31.4766774,8.81989247 L31.4766774,8.81989247 Z M43.9474839,8.81989247 L41.9392742,10.294086 L42.7062581,12.6801075 C42.8004677,12.9741935 42.6961452,13.2956989 42.4507742,13.4768817 C42.3262258,13.5672043 42.1809194,13.6129032 42.0361452,13.6129032 C41.8908387,13.6129032 41.7444677,13.5672043 41.6215161,13.4768817 L39.6122419,12.0026882 L37.6040323,13.4768817 C37.3565323,13.6586022 37.0212097,13.6586022 36.7742419,13.4768817 C36.5267419,13.2951613 36.4234839,12.9736559 36.5187581,12.6801075 L37.2852097,10.294086 L35.2764677,8.81989247 C35.0289677,8.63817204 34.9262419,8.31612903 35.0209839,8.02311828 C35.1157258,7.73010753 35.3871774,7.5311828 35.6921613,7.5311828 L38.1756774,7.5311828 L38.9426613,5.14516129 C39.036871,4.85107527 39.3083226,4.65268817 39.6133065,4.65268817 C39.9188226,4.65268817 40.1902742,4.85107527 40.2855484,5.14516129 L41.0514677,7.5311828 L43.5349839,7.5311828 C43.8405,7.5311828 44.1119516,7.73010753 44.2061613,8.02311828 C44.2982419,8.31666667 44.1949839,8.63870968 43.9474839,8.81989247 L43.9474839,8.81989247 Z" id="Shape"></path>
                        <path d="M58.9135161,29.7709677 L58.9135161,40.5795699 C58.9135161,41.9387097 57.818129,43.0462366 56.4715161,43.0462366 C55.0152581,43.0462366 54.2535968,41.8043011 54.2535968,40.5795699 L54.2535968,29.7709677 L54.2477419,29.7709677 L54.2450806,21.4602151 C54.2450806,20.9870968 54.2280484,20.5177419 54.1977097,20.0516129 L0.0479032258,20.0516129 C0.0170322581,20.5182796 0,20.9876344 0,21.4607527 L0,49.4913978 L11.3301774,49.4913978 L11.3301774,34.4198925 L32.5954839,34.4198925 L32.5954839,49.4913978 L43.2289355,49.4913978 L43.2289355,33.9967742 C43.2289355,32.7521505 44.2274516,31.7430108 45.4590968,31.7430108 C46.428871,31.7430108 47.5599194,32.5274194 47.5599194,33.9817204 L47.5599194,40.5801075 C47.5599194,45.7548387 51.4741452,49.8075269 56.4704516,49.8075269 C61.5088065,49.8075269 65.606129,45.6677419 65.606129,40.5801075 L65.606129,29.7709677 L58.9135161,29.7709677 L58.9135161,29.7709677 Z" id="Shape"></path>
                    </g>
                </g>
            </g>
        </g>
    </g>
</svg>