<?xml version="1.0" encoding="UTF-8" standalone="no"?>
<svg width="54px" height="57px" viewBox="0 0 54 57" version="1.1" xmlns="http://www.w3.org/2000/svg" xmlns:xlink="http://www.w3.org/1999/xlink" xmlns:sketch="http://www.bohemiancoding.com/sketch/ns">
    <!-- Generator: Sketch 3.5.2 (25235) - http://www.bohemiancoding.com/sketch -->
    <title>usa copy 2</title>
    <desc>Created with Sketch.</desc>
    <defs></defs>
    <g id="Welcome" stroke="none" stroke-width="1" fill="none" fill-rule="evenodd" sketch:type="MSPage">
        <g id="Desktop-HD" sketch:type="MSArtboardGroup" transform="translate(-182.000000, -775.000000)" fill="#DDCEB3">
            <g id="Group-3" sketch:type="MSLayerGroup" transform="translate(8.000000, 771.000000)">
                <g id="usa-copy-2" transform="translate(174.000000, 4.000000)" sketch:type="MSShapeGroup">
                    <g id="Group">
                        <path d="M7.27215254,4.634328 L7.27215254,37.729896 C23.0863729,43.16724 37.8434746,32.292096 53.6558644,37.729896 L53.6558644,4.634328 C37.8425593,-0.803016 23.0863729,10.072584 7.27215254,4.634328 L7.27215254,4.634328 Z M24.4944915,14.477088 C24.6423051,13.996464 24.7159831,13.755696 24.8647119,13.27416 C25.0120678,13.69824 25.0848305,13.910736 25.2331017,14.33436 C25.7117797,14.239056 25.9511186,14.188896 26.4288814,14.086752 C26.0417288,14.449728 25.8481525,14.630304 25.4623729,14.989176 C25.6097288,15.412344 25.6824915,15.623016 25.8307627,16.045728 C25.4436102,15.846 25.2509492,15.745224 24.8651695,15.54048 C24.4771017,15.895248 24.2844407,16.071264 23.898661,16.42056 C24.0464746,15.941304 24.1192373,15.701448 24.2670508,15.22128 C23.8798983,15.012888 23.6872373,14.907552 23.3005424,14.691864 C23.7773898,14.610696 24.0167288,14.567376 24.4944915,14.477088 L24.4944915,14.477088 Z M20.5707966,11.311992 C20.7181525,10.843224 20.7918305,10.60884 20.9401017,10.138248 C21.0874576,10.574184 21.1615932,10.791696 21.3098644,11.226264 C21.7876271,11.166528 22.0269661,11.132784 22.5051864,11.06028 C22.1175763,11.399088 21.9249153,11.56644 21.5377627,11.89704 C21.6860339,12.330696 21.7597119,12.547296 21.9075254,12.98004 C21.5203729,12.753864 21.3272542,12.638952 20.9405593,12.404112 C20.5534068,12.728784 20.3607458,12.88884 19.9735932,13.203936 C20.1214068,12.737448 20.1950847,12.50352 20.3428983,12.035664 C19.9557458,11.79444 19.7621695,11.672232 19.3763898,11.42052 C19.8536949,11.385864 20.091661,11.363064 20.5707966,11.311992 L20.5707966,11.311992 Z M20.5707966,18.61848 C20.7181525,18.149712 20.7918305,17.914872 20.9401017,17.444736 C21.0874576,17.880672 21.1615932,18.097728 21.3098644,18.532296 C21.7876271,18.47256 22.0269661,18.439272 22.5051864,18.366312 C22.1175763,18.70512 21.9249153,18.872928 21.5377627,19.202616 C21.6860339,19.636728 21.7597119,19.852872 21.9075254,20.28516 C21.5203729,20.058984 21.3272542,19.944072 20.9405593,19.709232 C20.5534068,20.03436 20.3607458,20.194416 19.9735932,20.509512 C20.1214068,20.04348 20.1950847,19.809552 20.3428983,19.341696 C19.9557458,19.100928 19.7621695,18.978264 19.3763898,18.727008 C19.8536949,18.691896 20.091661,18.669552 20.5707966,18.61848 L20.5707966,18.61848 Z M17.1184576,15.266424 C17.2658136,14.81316 17.3404068,14.586528 17.4891356,14.13144 C17.6364915,14.581968 17.7106271,14.806776 17.8584407,15.256392 C18.3362034,15.243624 18.5755424,15.232224 19.0537627,15.201672 C18.6661525,15.50628 18.4734915,15.656304 18.0867966,15.949512 C18.2346102,16.397304 18.3082881,16.620288 18.4561017,17.066712 C18.0689492,16.804512 17.8753729,16.670904 17.4895932,16.396848 C17.1019831,16.682304 16.909322,16.822296 16.5226271,17.094528 C16.6699831,16.644456 16.743661,16.41828 16.8919322,15.966384 C16.5047797,15.683664 16.3107458,15.539568 15.9240508,15.243168 C16.4022712,15.263232 16.6402373,15.26688 17.1184576,15.266424 L17.1184576,15.266424 Z M12.898678,11.170176 C13.0464915,10.741992 13.1201695,10.527672 13.2684407,10.097208 C13.4157966,10.572816 13.4885593,10.809936 13.6377458,11.283264 C14.1159661,11.348472 14.3543898,11.37492 14.8330678,11.41596 C14.4459153,11.662656 14.2518814,11.781672 13.8661017,12.012864 C14.0134576,12.484368 14.0871356,12.72012 14.2358644,13.1898 C13.8482542,12.866952 13.654678,12.70188 13.2688983,12.362616 C12.8812881,12.58332 12.6886271,12.689568 12.3028475,12.892944 C12.4502034,12.46932 12.5234237,12.256368 12.6712373,11.830464 C12.2840847,11.480712 12.0914237,11.301504 11.7042712,10.933968 C12.1815763,11.04204 12.4209153,11.089008 12.898678,11.170176 L12.898678,11.170176 Z M12.898678,18.476208 C13.0464915,18.04848 13.1201695,17.83416 13.2684407,17.40324 C13.4157966,17.878848 13.4885593,18.115968 13.6377458,18.589296 C14.1159661,18.654504 14.3543898,18.680952 14.8330678,18.721992 C14.4459153,18.969144 14.2518814,19.089072 13.8661017,19.320264 C14.0134576,19.791768 14.0871356,20.026608 14.2358644,20.495832 C13.8482542,20.17344 13.654678,20.008368 13.2688983,19.669104 C12.8812881,19.889808 12.6886271,19.996512 12.3028475,20.199888 C12.4502034,19.776264 12.5234237,19.563312 12.6712373,19.136952 C12.2840847,18.7872 12.0914237,18.607992 11.7042712,18.240456 C12.1815763,18.348072 12.4209153,18.39504 12.898678,18.476208 L12.898678,18.476208 Z M51.2148814,34.322208 C36.9867966,31.1904 23.9421356,39.402504 9.71359322,36.271608 L9.71359322,33.641856 C23.941678,36.774576 36.9872542,28.561104 51.2148814,31.692912 L51.2148814,34.322208 L51.2148814,34.322208 Z M51.2148814,29.261064 C36.9867966,26.127888 23.9421356,34.341816 9.71359322,31.210008 L9.71359322,28.6824 C23.941678,31.814664 36.9872542,23.601192 51.2148814,26.733912 L51.2148814,29.261064 L51.2148814,29.261064 Z M51.2148814,24.301152 C36.9867966,21.168432 23.9412203,29.382816 9.71359322,26.24964 L9.71359322,23.67552 C23.9425932,26.806416 36.9872542,18.593856 51.2148814,21.726576 L51.2148814,24.301152 L51.2148814,24.301152 Z M51.2148814,19.29336 C43.7450339,17.577888 37.3785254,18.674112 30.004322,20.37636 L30.004322,17.596584 C37.3762373,15.894792 43.7454915,14.7972 51.2148814,16.513584 L51.2148814,19.29336 L51.2148814,19.29336 Z M51.2148814,14.080824 C43.7450339,12.365352 37.3776102,13.461576 30.004322,15.163824 L30.004322,12.64488 C37.3762373,10.942176 43.7454915,9.845952 51.2148814,11.56188 L51.2148814,14.080824 L51.2148814,14.080824 Z M51.2148814,9.12912 C43.7450339,7.413648 37.3785254,8.510328 30.004322,10.211664 L30.004322,7.175616 C37.3762373,5.473368 43.7454915,4.376232 51.2148814,6.093072 L51.2148814,9.12912 L51.2148814,9.12912 Z" id="Shape"></path>
                        <path d="M4.49755932,0 L2.96359322,0 C1.57927119,0 0.45259322,1.122216 0.45259322,2.502072 C0.45259322,3.464688 0.993966102,4.307376 1.81449153,4.72416 L1.81449153,56.652072 L5.75740678,56.652072 L5.75740678,4.665792 C6.51889831,4.228944 7.00855932,3.417264 7.00855932,2.502072 C7.00855932,1.122672 5.88142373,0 4.49755932,0 L4.49755932,0 Z" id="Shape"></path>
                    </g>
                </g>
            </g>
        </g>
    </g>
</svg>