<?xml version="1.0" encoding="UTF-8" standalone="no"?>
<svg width="37px" height="57px" viewBox="0 0 37 57" version="1.1" xmlns="http://www.w3.org/2000/svg" xmlns:xlink="http://www.w3.org/1999/xlink" xmlns:sketch="http://www.bohemiancoding.com/sketch/ns">
    <!-- Generator: Sketch 3.5.2 (25235) - http://www.bohemiancoding.com/sketch -->
    <title>Shape Copy 4</title>
    <desc>Created with Sketch.</desc>
    <defs></defs>
    <g id="Welcome" stroke="none" stroke-width="1" fill="none" fill-rule="evenodd" sketch:type="MSPage">
        <g id="Desktop-HD" sketch:type="MSArtboardGroup" transform="translate(-366.000000, -771.000000)" fill="#DDCEB3">
            <g id="Group-3" sketch:type="MSLayerGroup" transform="translate(8.000000, 771.000000)">
                <path d="M390.547513,23.5068 L394.616524,18.00516 L394.616524,16.27122 L391.565624,16.27122 L391.565624,11.20962 C391.565624,11.20962 390.775158,10.56438 387.788318,10.00122 L386.964678,7.26294 C386.948663,7.21392 386.920064,7.1706 386.878882,7.13754 L379.810448,1.61994 C379.859638,1.48656 379.8951,1.34862 379.8951,1.20042 C379.8951,0.53922 379.356302,0 378.690527,0 C378.024751,0 377.485953,0.53922 377.485953,1.20042 C377.485953,1.86276 378.025895,2.40198 378.690527,2.40198 C379.021127,2.40198 379.323128,2.26746 379.539334,2.05086 L386.501381,7.48752 L387.228929,9.90546 C384.911298,9.5133 381.455441,9.1827 376.30769,9.1827 C363.525253,9.1827 361.0509,11.20962 361.0509,11.20962 L361.0509,16.27122 L358,16.27122 L358,18.00516 L362.069011,23.5068 L363.08369,23.5068 L365.086737,51.29202 L361.0509,55.64568 L361.0509,57 L391.56448,57 L391.56448,55.64568 L387.528643,51.29202 L389.53169,23.5068 L390.547513,23.5068 L390.547513,23.5068 Z" id="Shape-Copy-4" sketch:type="MSShapeGroup"></path>
            </g>
        </g>
    </g>
</svg>