<?xml version="1.0" encoding="UTF-8" standalone="no"?>
<svg width="56px" height="56px" viewBox="0 0 56 56" version="1.1" xmlns="http://www.w3.org/2000/svg" xmlns:xlink="http://www.w3.org/1999/xlink" xmlns:sketch="http://www.bohemiancoding.com/sketch/ns">
    <!-- Generator: Sketch 3.5.2 (25235) - http://www.bohemiancoding.com/sketch -->
    <title>vote copy</title>
    <desc>Created with Sketch.</desc>
    <defs></defs>
    <g id="Welcome" stroke="none" stroke-width="1" fill="none" fill-rule="evenodd" sketch:type="MSPage">
        <g id="Desktop-HD" sketch:type="MSArtboardGroup" transform="translate(-273.000000, -775.000000)" fill="#DDCEB3">
            <g id="Group-3" sketch:type="MSLayerGroup" transform="translate(8.000000, 771.000000)">
                <g id="vote-copy" transform="translate(265.000000, 4.000000)" sketch:type="MSShapeGroup">
                    <path d="M51.4963252,27.9990894 L55.9995447,23.5646179 L50.3462764,20.7386667 L53.2582764,15.129561 L47.0081301,14.1889431 L48.0443577,7.95427642 L41.8106016,8.99050407 L40.8699837,2.74081301 L35.260878,5.65281301 L32.4340163,0 L27.9995447,4.50321951 L23.5646179,0 L20.7386667,5.65281301 L15.129561,2.74081301 L14.1889431,8.99050407 L7.95473171,7.95427642 L8.99050407,14.1889431 L2.74126829,15.1291057 L5.65326829,20.7382114 L0,23.5646179 L4.50321951,27.9990894 L0,32.4344715 L5.65281301,35.2604228 L2.74126829,40.8690732 L8.99095935,41.8096911 L7.95518699,48.044813 L14.1893984,47.0081301 L15.1300163,53.2587317 L20.739122,50.3467317 L23.5650732,55.9995447 L27.9995447,51.4958699 L32.4340163,55.9995447 L35.2599675,50.3467317 L40.8690732,53.2587317 L41.8101463,47.0081301 L48.0439024,48.044813 L47.0076748,41.8096911 L53.2578211,40.8690732 L50.3458211,35.2613333 L55.9990894,32.4353821 L51.4963252,27.9990894 L51.4963252,27.9990894 Z M27.8370081,5.45977236 C37.516813,5.45977236 45.7697561,11.5633171 48.9622114,20.1317724 C47.4543089,21.0104715 45.9113496,21.7835447 44.3356098,22.4487154 L44.3356098,14.4766829 C43.1841951,13.0744065 41.8556748,11.8246504 40.3864715,10.7542764 L40.3864715,23.8660163 C39.3220163,24.1851707 38.2461789,24.4642602 37.1548618,24.6919024 L37.1548618,8.80930081 C35.9019187,8.1996748 34.5811382,7.70978862 33.2057236,7.35330081 L33.2057236,25.3060813 C32.1389919,25.4189919 31.0626992,25.4945691 29.9736585,25.5246179 L29.9736585,6.77964228 C29.2729756,6.71043902 28.5627317,6.67401626 27.844748,6.67401626 C27.2310244,6.67401626 26.6245854,6.70543089 26.024065,6.75687805 L26.024065,25.4554146 C24.9573333,25.3889431 23.8787642,25.275122 22.7929106,25.1326179 L22.7929106,7.28091057 C21.4188618,7.61417886 20.0985366,8.08039024 18.8433171,8.66543089 L18.8433171,24.4597073 C17.7078374,24.2179512 16.6279024,23.9475122 15.6121626,23.6629593 L15.6121626,10.5348293 C14.1497886,11.5614959 12.8235447,12.7652683 11.6621138,14.1170081 L11.6621138,22.3881626 C9.21769106,21.4917073 7.47213008,20.6471545 6.6699187,20.2346667 C9.8355122,11.6115772 18.1171382,5.45977236 27.8370081,5.45977236 L27.8370081,5.45977236 Z M45.5493984,32.3393171 C45.7192195,32.1080325 45.9491382,31.9445854 46.2373333,31.8466992 C46.5414634,31.7433496 46.7782114,31.7469919 46.9475772,31.8626341 C47.1160325,31.979187 47.2011707,32.1676748 47.2011707,32.4280976 C47.2011707,32.6889756 47.1160325,32.9361951 46.9475772,33.1706667 C46.7786667,33.4046829 46.5460163,33.5745041 46.249626,33.6742114 C45.9541463,33.7752846 45.7201301,33.764813 45.5503089,33.6459837 C45.3800325,33.5276098 45.2948943,33.3363902 45.2948943,33.0750569 C45.2939837,32.816 45.379122,32.5715122 45.5493984,32.3393171 L45.5493984,32.3393171 Z M45.4861138,25.2273171 C45.4861138,24.9140813 45.543935,24.6750569 45.6613984,24.5061463 C45.7779512,24.3376911 45.9973984,24.198374 46.3192846,24.0891057 C46.6457236,23.9771057 46.8642602,23.9652683 46.9789919,24.0549593 C47.092813,24.1446504 47.1497236,24.3445203 47.1497236,24.6573008 C46.9453008,27.1704715 46.8414959,28.4284228 46.6366179,30.9397724 C46.302439,31.0572358 46.1339837,31.1132358 45.7970732,31.2243252 C45.6727805,28.8267967 45.6104065,27.6266667 45.4861138,25.2273171 L45.4861138,25.2273171 Z M39.2409756,29.7018537 C40.808065,29.3826992 41.5884228,29.195122 43.135935,28.7653333 C43.135935,29.492878 43.1363902,29.857561 43.1363902,30.585561 C41.588878,31.0153496 40.8089756,31.2020163 39.2409756,31.5220813 L39.2409756,33.7470569 C41.3270894,33.3218211 42.3633171,33.0604878 44.4130081,32.439935 L44.4130081,34.2647154 C41.5957073,35.1192846 40.1624715,35.4534634 37.2796098,35.9374309 L37.2796098,26.1606504 C40.1683902,25.6739512 41.6029919,25.3365854 44.4262114,24.4779187 L44.4262114,26.3036098 C42.3715122,26.926439 41.3316423,27.1886829 39.2396098,27.6152846 C39.2409756,28.4498211 39.2409756,28.8668618 39.2409756,29.7018537 L39.2409756,29.7018537 Z M27.5693008,28.9934309 L27.5693008,27.1681951 C31.0126179,27.144065 32.7386016,27.0024715 36.1491382,26.4606829 L36.1491382,28.2872846 C34.8374634,28.4953496 34.1800325,28.5800325 32.8597073,28.7116098 L32.8597073,36.6699837 C32.0684228,36.7482927 31.6718699,36.7819837 30.8773984,36.8325203 L30.8773984,28.8741463 C29.5561626,28.9601951 28.8932683,28.9843252 27.5693008,28.9934309 L27.5693008,28.9934309 Z M27.9075772,32.0146992 C27.9075772,33.4065041 27.4331707,34.5774959 26.4839024,35.4953496 C25.5350894,36.4132033 24.3540813,36.8361626 22.9449756,36.723252 C21.5354146,36.6094309 20.3616911,35.9966179 19.4201626,34.9253333 C18.4777236,33.8531382 18.0078699,32.6052033 18.0078699,31.2179512 C18.0078699,29.8261463 18.4772683,28.7493984 19.4201626,27.9490081 C20.3616911,27.1486179 21.5354146,26.8258211 22.9449756,26.9387317 C24.3545366,27.0525528 25.5350894,27.5633821 26.4839024,28.5153821 C27.4327154,29.4682927 27.9075772,30.6233496 27.9075772,32.0146992 L27.9075772,32.0146992 Z M17.7743089,26.3882927 C16.2049431,30.0314797 15.4641951,31.7292358 13.9125854,35.2631545 L11.9302764,34.6621789 C10.3841301,30.311935 9.66204878,27.6107317 8.14185366,23.1503089 C8.6504065,23.4398699 9.61105691,23.8637398 10.1756098,24.0654309 C11.2637398,27.2792846 11.8114472,29.235187 12.9109593,32.3930407 C14.0314146,29.8225041 14.5941463,28.523122 15.7250732,25.8943089 C16.4307642,26.0650407 17.0654309,26.2435122 17.7743089,26.3882927 L17.7743089,26.3882927 Z M27.8370081,50.5384065 C17.3121951,50.5384065 8.47330081,43.3239675 5.99291057,33.5699512 C15.9349593,39.4385691 38.4683577,40.4456585 49.6396748,33.7265691 C47.1051057,43.4004553 38.3053659,50.5384065 27.8370081,50.5384065 L27.8370081,50.5384065 Z" id="Shape"></path>
                    <path d="M22.9386016,28.7657886 C22.0621789,28.6956748 21.3505691,28.9114797 20.8019512,29.4336911 C20.2533333,29.9559024 19.9783415,30.6456585 19.9783415,31.515252 C19.9783415,32.3848455 20.2533333,33.1524553 20.8019512,33.8039675 C21.3505691,34.4554797 22.067187,34.8265366 22.9527154,34.897561 C23.8291382,34.9676748 24.5421138,34.7118049 25.0939187,34.1481626 C25.6457236,33.5849756 25.9211707,32.8628943 25.9211707,31.9933008 C25.9211707,31.1237073 25.6461789,30.3884228 25.094374,29.7783415 C24.5430244,29.1673496 23.8241301,28.836813 22.9386016,28.7657886 L22.9386016,28.7657886 Z" id="Shape"></path>
                    <path d="M16.4353171,40.995187 L15.0039024,38.6709593 L14.3373659,40.5112195 L12.0541138,40.3067967 L14.0473496,42.3196098 L14.0660163,44.5186341 L15.9672846,43.9203902 L18.2610081,45.4829268 L17.4405854,43.0995122 L18.8405854,41.8697886 L16.4353171,40.995187 Z" id="Shape"></path>
                    <path d="M36.5734634,45.4829268 L38.867187,43.9203902 L40.7689106,44.5186341 L40.7866667,42.3196098 L42.780813,40.3067967 L40.497561,40.5112195 L39.8305691,38.6709593 L38.3996098,40.995187 L35.9943415,41.8697886 L37.3943415,43.0995122 L36.5734634,45.4829268 Z" id="Shape"></path>
                    <path d="M24.6135935,42.8377236 L26.3054309,44.4890407 L25.9066016,46.8205528 L28,45.7192195 L30.0924878,46.8205528 L29.6932033,44.4890407 L31.3864065,42.8377236 L29.0462439,42.497626 L28,40.3782764 L26.9537561,42.497626 L24.6135935,42.8377236 Z" id="Shape"></path>
                </g>
            </g>
        </g>
    </g>
</svg>