<?xml version="1.0" encoding="UTF-8" standalone="no"?>
<svg width="21px" height="21px" viewBox="0 0 21 21" version="1.1" xmlns="http://www.w3.org/2000/svg" xmlns:xlink="http://www.w3.org/1999/xlink" xmlns:sketch="http://www.bohemiancoding.com/sketch/ns">
    <!-- Generator: Sketch 3.5.2 (25235) - http://www.bohemiancoding.com/sketch -->
    <title>alert9 copy</title>
    <desc>Created with Sketch.</desc>
    <defs></defs>
    <g id="Welcome" stroke="none" stroke-width="1" fill="none" fill-rule="evenodd" sketch:type="MSPage">
        <g id="Desktop-HD-Copy-2" sketch:type="MSArtboardGroup" transform="translate(-868.000000, -397.000000)" fill="#0AA7C6">
            <g id="alert9-copy" sketch:type="MSLayerGroup" transform="translate(868.000000, 397.000000)">
                <path d="M10.5,0 C4.701375,0 0,4.701375 0,10.5 C0,16.298625 4.701375,21 10.5,21 C16.298625,21 21,16.298625 21,10.5 C21,4.701375 16.298625,0 10.5,0 L10.5,0 Z M10.5,17.2025 C9.67925,17.2025 9.1175,16.569875 9.1175,15.75 C9.1175,14.9065 9.702875,14.2975 10.5,14.2975 C11.342625,14.2975 11.8825,14.9065 11.8825,15.75 C11.8825,16.57075 11.342625,17.2025 10.5,17.2025 L10.5,17.2025 Z M11.04425,11.655875 C10.835125,12.369 10.17625,12.38125 9.956625,11.655875 C9.70375,10.819375 8.805125,7.644 8.805125,5.581625 C8.805125,2.860375 12.20975,2.84725 12.20975,5.581625 C12.208875,7.65625 11.262125,10.913875 11.04425,11.655875 L11.04425,11.655875 Z" id="Shape" sketch:type="MSShapeGroup"></path>
            </g>
        </g>
    </g>
</svg>