<svg width="55" height="55" viewBox="0 0 55 55" xmlns="http://www.w3.org/2000/svg" xmlns:xlink="http://www.w3.org/1999/xlink"><title>woman104</title><defs><circle id="a" cx="27.5" cy="27.5" r="27.5"/></defs><g fill="none" fill-rule="evenodd"><mask id="b" fill="#fff"><use xlink:href="#a"/></mask><use fill="#FFF" xlink:href="#a"/><path d="M30.93 30.403a7.8 7.8 0 0 0 .202-.85c.056-.264.102-.545.157-.862.395-2.462.597-6.347.597-12.19 0-9.12-6.01-16.5-13.42-16.5-2.696 0-5.21.987-7.307 2.68a5.05 5.05 0 0 0-.957.843C7.073 6.548 5.048 11.23 5.048 16.52c0 6.194.24 10.197.672 12.615.055.308.11.59.175.85.074.318.157.6.24.844-3.49 2.263-6.12 5.73-6.12 8.847v8.26H36.92v-8.26c0-3.342-2.384-7.037-5.992-9.274zM9.632 16.238l-.543-.072c-.664-.09-1.51-.833-1.823-2.065-.22-.832-.14-1.683.22-2.263.12-.217.36-.49.71-.57.054-.01.11-.02.183-.02.055 0 .092 0 .147.01l.783.073.11-.77c.102-.643.24-1.26.424-1.848.975 3.107 3.68 2.772 7.593 3.26 1.215.155 2.697.236 3.543.218.148-2.427-2.715-5.144-2.715-5.144s.065-.036.36-.01c.423.055 1.325.363 1.518.49 3.13 1.72 3.728 4.21 3.774 4.302 1.6-.426 2.807-1.25 3.285-2.672.12.453.24.933.313 1.422l.11.77.783-.073c.11-.01.24-.01.322.01.35.08.58.353.71.57.35.58.43 1.422.22 2.264-.322 1.25-1.17 1.992-1.823 2.064l-.543.073-.147.525c-.856 3.034-2.66 6.186-4.915 7.997-1.17.923-2.43 1.502-3.764 1.502-1.335 0-2.605-.57-3.765-1.503-2.255-1.794-4.06-4.955-4.915-7.998l-.156-.544zm14.662 17.118c-3.194 1.657-5.338 2.98-5.578 2.988-1.04-.136-5.936-2.943-5.936-2.943-1.215-.624-1.952-.977-3.34-2.282.174-.217.845-1.132 1.02-1.367.175-.216.35-.434.525-.67.79-1.013 1.647-2.137 2.55-3.142 1.472 1.205 3.147 1.947 4.924 1.947 1.775 0 3.45-.75 4.923-1.947 1.132 1.268 2.21 2.726 3.166 3.922.183.235.367.453.542.66.193.236.377.445.57.644-.708.924-2.402 1.684-3.368 2.192z" fill="#1B374B" transform="translate(9 7)" mask="url(#b)"/></g></svg>