<svg width="55" height="55" viewBox="0 0 55 55" xmlns="http://www.w3.org/2000/svg" xmlns:xlink="http://www.w3.org/1999/xlink"><title>man416</title><defs><circle id="a" cx="27.5" cy="27.5" r="27.5"/></defs><g fill="none" fill-rule="evenodd"><mask id="b" fill="#fff"><use xlink:href="#a"/></mask><use fill="#FFF" xlink:href="#a"/><g fill="#1B374B" mask="url(#b)"><path d="M17.692 27.794c1.48 5.108 5.28 10.415 10.403 10.415 5.124 0 8.932-5.308 10.402-10.416C39.76 27.332 40.82 26 41.23 24.28c.57-2.364-.265-4.555-1.88-5.217a8.444 8.444 0 0 0 .222-1.93C39.572 11.53 34.267 7 27.725 7 21.182 7 15.86 11.537 15.86 17.134c0 .797.12 1.576.32 2.32-1.17.932-1.704 2.815-1.222 4.835.413 1.71 1.47 3.042 2.734 3.504zm-.79-6.512c.17-.3.394-.498.678-.58a1.113 1.113 0 0 1 .327-.008l.816.08.12-.85c.25-1.775.775-3.37 1.514-4.728 1.384 1.64 4.135 2.753 7.308 2.753 3.585 0 6.637-1.422 7.763-3.415.946 1.494 1.616 3.315 1.908 5.39l.12.85.818-.08c.12-.01.232-.01.326.008.06.01.095.054.155.072.74.344 1.118 1.712.8 3.07-.327 1.386-1.187 2.2-1.866 2.292l-.568.08-.155.58c-1.238 4.765-4.677 9.6-8.89 9.6-4.212 0-7.65-4.826-8.872-9.6l-.155-.58-.567-.08c-.68-.09-1.54-.924-1.866-2.292-.215-.978-.086-1.965.284-2.563z"/><path d="M38.196 34.115c-1.1 1.975-2.373 3.65-4.066 4.547-3.482 1.875-6.07 3.396-6.07 3.396l-.01-.01v-.044l-.04.018-.044-.018v.045l-.01.008s-2.587-1.512-6.07-3.396c-1.684-.915-2.956-2.58-4.065-4.547-5.15 2.2-8.75 7.282-8.75 11.702V55H46.93v-9.183c.018-4.42-3.584-9.492-8.734-11.702z"/></g></g></svg>