<svg width="55" height="55" viewBox="0 0 55 55" xmlns="http://www.w3.org/2000/svg" xmlns:xlink="http://www.w3.org/1999/xlink"><title>Group 2</title><defs><ellipse id="a" cx="25.5" cy="25.5" rx="25.5" ry="25.5"/></defs><g fill="none" fill-rule="evenodd"><use stroke="#FFF" stroke-width="4" fill="#FFF" xlink:href="#a" transform="translate(2 2)"/><path d="M40.96 27.48a2.36 2.36 0 0 1-2.36 2.36h-8.76v8.76a2.36 2.36 0 1 1-4.72.002V29.84H16.36a2.35 2.35 0 0 1-1.667-.692 2.36 2.36 0 0 1 1.67-4.027h8.76v-8.76a2.36 2.36 0 0 1 4.72 0v8.76h8.762a2.36 2.36 0 0 1 2.358 2.36z" fill="#EFE3CE"/></g></svg>